<svg width="24" height="24" viewBox="0 0 24 24" fill="none" xmlns="http://www.w3.org/2000/svg">
<g clip-path="url(#clip0_209_1589)">
<path d="M16.5167 23.9735L16.5166 23.9735C15.7988 23.9811 15.3286 23.7642 14.8169 23.5282C14.7764 23.5095 14.7356 23.4907 14.6944 23.4718C14.1322 23.2148 13.4983 22.9565 12.4338 22.9625C11.3694 22.9678 10.7259 23.2264 10.1537 23.4811C10.1152 23.4983 10.077 23.5154 10.039 23.5324C9.51402 23.7678 9.03312 23.9835 8.30912 23.9765C7.43819 23.9691 6.66805 23.5359 5.98873 22.9098C5.3094 22.2838 4.72307 21.4668 4.22005 20.6962C2.81584 18.5445 2.03977 16.2059 1.83126 14.0698C1.62272 11.9333 1.98212 10.0014 2.84613 8.66174C4.07708 6.75624 6.0172 5.64399 7.8364 5.64399C8.76274 5.64399 9.51764 5.89955 10.2358 6.15637C10.2699 6.16858 10.304 6.18079 10.338 6.19297C11.0183 6.43692 11.6725 6.67149 12.4114 6.67149C13.0958 6.67149 13.6587 6.45696 14.2679 6.22482C14.3289 6.20157 14.3904 6.17814 14.4525 6.15473C15.1352 5.89746 15.8978 5.64099 16.9698 5.64099C18.5844 5.64099 20.2959 6.52236 21.5197 8.04501C17.5082 10.2824 18.1603 16.0569 22.2183 17.623C21.6659 18.8546 21.3969 19.4098 20.6807 20.5072C20.1776 21.278 19.5728 22.1419 18.8747 22.8148C18.1764 23.4878 17.3877 23.9668 16.5167 23.9735Z" fill="#37313C" stroke="#37313C" stroke-width="0.0468747"/>
<path d="M11.6585 5.77503C13.0565 5.81853 14.501 4.98003 15.338 3.89554C16.121 2.88604 16.7135 1.45805 16.499 6.10352e-05M11.6585 5.77503L11.6816 5.77082C11.6804 5.76459 11.6793 5.75836 11.6782 5.75214M11.6585 5.77503C11.4035 4.37854 12.0575 2.94154 12.8525 1.97405C13.724 0.907556 15.2195 0.0885605 16.499 6.10352e-05M11.6585 5.77503L11.6593 5.7516C11.6656 5.7518 11.6719 5.75198 11.6782 5.75214M11.6782 5.75214C13.0612 5.78722 14.4898 4.95619 15.3194 3.88122L15.3195 3.88117C16.0961 2.87994 16.6833 1.46731 16.4789 0.0250119M11.6782 5.75214C11.4341 4.37091 12.0815 2.94925 12.8706 1.98893L12.8707 1.98888C13.7336 0.932881 15.2113 0.120717 16.4789 0.0250119M16.4789 0.0250119C16.4862 0.0244654 16.4934 0.0239422 16.5006 0.0234425L16.499 6.10352e-05M16.4789 0.0250119C16.4779 0.0178328 16.4769 0.010653 16.4758 0.0034724L16.499 6.10352e-05" fill="#37313C" stroke="#37313C" stroke-width="0.0468747"/>
</g>
<defs>
<clipPath id="clip0_209_1589">
<rect width="24" height="24" fill="white"/>
</clipPath>
</defs>
</svg>
