<svg width="25" height="24" viewBox="0 0 25 24" fill="none" xmlns="http://www.w3.org/2000/svg">
<g clip-path="url(#clip0_209_1584)">
<path d="M5.81891 14.5035L4.9835 17.6222L1.93011 17.6868C1.01759 15.9943 0.5 14.0578 0.5 12C0.5 10.0101 0.983938 8.13362 1.84175 6.48132H1.84241L4.56078 6.9797L5.75159 9.68176C5.50236 10.4084 5.36652 11.1884 5.36652 12C5.36661 12.8809 5.52617 13.7249 5.81891 14.5035Z" fill="#FBBB00"/>
<path d="M24.2902 9.75824C24.428 10.4841 24.4999 11.2338 24.4999 12C24.4999 12.8591 24.4095 13.6971 24.2375 14.5055C23.6533 17.2563 22.1269 19.6582 20.0124 21.358L20.0118 21.3574L16.5878 21.1827L16.1032 18.1576C17.5063 17.3347 18.6028 16.047 19.1804 14.5055H12.7637V9.75824H19.274H24.2902Z" fill="#518EF8"/>
<path d="M20.0119 21.3574L20.0126 21.358C17.9561 23.011 15.3438 24 12.5001 24C7.93018 24 3.957 21.4457 1.93018 17.6868L5.81897 14.5035C6.83236 17.2081 9.44138 19.1334 12.5001 19.1334C13.8148 19.1334 15.0465 18.778 16.1033 18.1576L20.0119 21.3574Z" fill="#28B446"/>
<path d="M20.1596 2.76262L16.2721 5.94525C15.1783 5.26153 13.8853 4.86656 12.5 4.86656C9.37213 4.86656 6.71431 6.88017 5.75169 9.68175L1.84245 6.48131H1.8418C3.83895 2.63077 7.86224 0 12.5 0C15.4117 0 18.0814 1.03716 20.1596 2.76262Z" fill="#F14336"/>
</g>
<defs>
<clipPath id="clip0_209_1584">
<rect width="24" height="24" fill="white" transform="translate(0.5)"/>
</clipPath>
</defs>
</svg>
