<svg width="12" height="10" viewBox="0 0 12 10" fill="none" xmlns="http://www.w3.org/2000/svg">
<path d="M11.3335 5.18286C11.3335 5.43599 11.1454 5.64518 10.9013 5.67829L10.8335 5.68286L2.04416 5.68246L5.21949 8.84481C5.41517 9.03965 5.41585 9.35623 5.22101 9.55192C5.04388 9.72981 4.76614 9.74654 4.57009 9.60173L4.5139 9.55344L0.480572 5.53744C0.454778 5.51175 0.432374 5.48396 0.413359 5.45461C0.407989 5.44577 0.402521 5.43673 0.397339 5.42751C0.392571 5.41961 0.388264 5.4114 0.384199 5.4031C0.378555 5.39103 0.37304 5.37856 0.368032 5.36583C0.363964 5.35602 0.360567 5.34647 0.357469 5.33685C0.353785 5.32492 0.350205 5.31221 0.347127 5.2993C0.344838 5.29029 0.343025 5.28162 0.341444 5.27291C0.339221 5.25996 0.337328 5.24656 0.335978 5.23299C0.334812 5.22265 0.33411 5.2124 0.333722 5.20214C0.333622 5.19591 0.333496 5.1894 0.333496 5.18286L0.333746 5.16349C0.334129 5.15368 0.3348 5.14387 0.335758 5.13409L0.333496 5.18286C0.333496 5.15131 0.336418 5.12044 0.342008 5.0905C0.343304 5.08336 0.344849 5.07602 0.346559 5.06871C0.35011 5.05366 0.354215 5.03916 0.358941 5.02495C0.36126 5.01789 0.363963 5.01035 0.366852 5.00286C0.372694 4.98782 0.379045 4.97347 0.386032 4.95951C0.389277 4.95294 0.392913 4.94606 0.396719 4.93925C0.402967 4.92815 0.409405 4.91759 0.416211 4.90731C0.421014 4.90003 0.426332 4.89245 0.431885 4.88499L0.436212 4.87923C0.449682 4.86163 0.464296 4.84495 0.479942 4.8293L0.480542 4.82884L4.51388 0.812173C4.70954 0.617316 5.02612 0.617972 5.22098 0.813637C5.39812 0.991516 5.41369 1.26932 5.26804 1.46476L5.21952 1.52074L2.0455 4.68246L10.8335 4.68286C11.1096 4.68286 11.3335 4.90671 11.3335 5.18286Z" fill="#585A66"/>
</svg>
