<svg width="48" height="48" viewBox="0 0 48 48" fill="none" xmlns="http://www.w3.org/2000/svg">
<g clip-path="url(#clip0_220_1802)">
<path fill-rule="evenodd" clip-rule="evenodd" d="M48.0001 24.0017C48.0007 19.2543 46.5934 14.6135 43.9564 10.666C41.3193 6.71852 37.5708 3.64172 33.185 1.82473C28.7991 0.00773561 23.973 -0.467831 19.3169 0.458177C14.6607 1.38418 10.3838 3.67017 7.02697 7.02702C3.67012 10.3839 1.38413 14.6608 0.458118 19.3169C-0.467889 23.973 0.00766784 28.7992 1.82466 33.185C3.64165 37.5708 6.71846 41.3193 10.6659 43.9564C14.6134 46.5935 19.2543 48.0008 24.0016 48.0002C30.362 47.9859 36.4578 45.4529 40.9553 40.9554C45.4528 36.4579 47.9858 30.3621 48.0001 24.0017Z" fill="white"/>
<path fill-rule="evenodd" clip-rule="evenodd" d="M19.7051 30.9346H28.352C27.002 29.4313 26.3316 27.453 25.9948 25.7392C25.7406 24.5781 25.6175 23.3921 25.628 22.2035H22.399C22.4115 23.3906 22.2986 24.5758 22.0622 25.7392C21.7616 27.453 21.0821 29.4193 19.7051 30.9346Z" fill="#F9B54C"/>
<path fill-rule="evenodd" clip-rule="evenodd" d="M19.3143 23.1866C19.2262 23.1952 19.1376 23.1751 19.0618 23.1294L15.523 21.3044C14.7508 20.9013 14.0704 20.3428 13.5245 19.6639C12.9786 18.985 12.5791 18.2006 12.3511 17.3598L11.3409 13.3731C11.2553 13.0355 11.2488 12.6827 11.3218 12.3422C11.3948 12.0017 11.5454 11.6826 11.7618 11.4098C11.9772 11.1303 12.2535 10.9038 12.5698 10.7474C12.8861 10.5911 13.234 10.5092 13.5868 10.5078H19.2993C19.376 10.5089 19.4517 10.5255 19.5219 10.5567C19.592 10.5878 19.6551 10.6328 19.7074 10.689C19.7596 10.7452 19.7999 10.8114 19.8259 10.8836C19.8519 10.9558 19.863 11.0325 19.8585 11.1091C19.8585 11.2577 19.7997 11.4003 19.6949 11.5056C19.5901 11.611 19.4479 11.6706 19.2993 11.6714H13.5868C13.4089 11.6729 13.2336 11.7139 13.0735 11.7913C12.9133 11.8688 12.7724 11.9808 12.6608 12.1193C12.5503 12.2549 12.4724 12.4141 12.4333 12.5846C12.3942 12.7551 12.3949 12.9323 12.4353 13.1025L13.4455 17.0591C13.6289 17.7465 13.9532 18.3882 14.3978 18.9436C14.8424 19.499 15.3976 19.9558 16.0281 20.2852L19.5939 22.1102C19.7193 22.1856 19.8117 22.3053 19.8529 22.4457C19.8941 22.586 19.8811 22.7367 19.8164 22.8679C19.7719 22.9621 19.7004 23.0409 19.611 23.0944C19.5216 23.148 19.4184 23.1737 19.3143 23.1685V23.1866Z" fill="#F9B54C"/>
<path fill-rule="evenodd" clip-rule="evenodd" d="M28.6885 23.1867C28.5857 23.184 28.4852 23.1549 28.3968 23.1023C28.3083 23.0496 28.2349 22.9752 28.1834 22.886C28.1174 22.7519 28.1069 22.5972 28.1542 22.4553C28.2014 22.3135 28.3027 22.196 28.436 22.1284L31.9717 20.3034C32.6094 19.9778 33.1703 19.5201 33.6172 18.9607C34.0641 18.4013 34.3867 17.7531 34.5634 17.0593L35.5736 13.0725C35.6186 12.9047 35.6244 12.7287 35.5905 12.5582C35.5566 12.3877 35.484 12.2273 35.3782 12.0894C35.265 11.9508 35.1224 11.8392 34.9606 11.7628C34.7988 11.6863 34.622 11.6469 34.4431 11.6474H28.6885C28.5394 11.6474 28.3964 11.5882 28.291 11.4828C28.1855 11.3773 28.1263 11.2343 28.1263 11.0852C28.1218 11.0083 28.133 10.9314 28.1592 10.859C28.1853 10.7866 28.2259 10.7203 28.2785 10.664C28.3311 10.6078 28.3946 10.5628 28.465 10.5319C28.5355 10.5009 28.6116 10.4846 28.6885 10.4839H34.4431C34.795 10.4881 35.1414 10.5713 35.4568 10.7275C35.7722 10.8836 36.0484 11.1086 36.2651 11.3859C36.4811 11.6612 36.63 11.983 36.6999 12.3259C36.7699 12.6688 36.7589 13.0233 36.668 13.3612L35.6488 17.3599C35.4338 18.2042 35.0424 18.9933 34.5003 19.6753C33.9583 20.3573 33.2778 20.9166 32.5039 21.3166L28.9682 23.1416C28.8826 23.1876 28.7853 23.2075 28.6885 23.1987V23.1867Z" fill="#F9B54C"/>
<path fill-rule="evenodd" clip-rule="evenodd" d="M24.0015 26.3588C22.1635 26.3573 20.4006 25.6297 19.0964 24.3346C17.7923 23.0395 17.0526 21.2816 17.0383 19.4437L16.9541 8.6651H31.0459L30.9557 19.4647V19.8315C30.9598 19.889 30.9506 19.9466 30.9287 19.9999V20.1683C30.9287 20.2224 30.8986 20.2795 30.8986 20.3366C30.8936 20.4506 30.8754 20.5636 30.8445 20.6734V20.7004C30.8445 20.7575 30.8144 20.8117 30.8144 20.8688C30.7874 21.0372 30.7302 21.1695 30.7032 21.3468H30.6761C30.6761 21.401 30.646 21.4581 30.646 21.5152C30.1991 22.9273 29.313 24.1598 28.1167 25.0332C26.9205 25.9066 25.4766 26.3752 23.9955 26.3708L24.0015 26.3588Z" fill="#FFD05B"/>
<path d="M28.6855 30.6519H19.311V31.7463H28.6855V30.6519Z" fill="#FEE187"/>
<path fill-rule="evenodd" clip-rule="evenodd" d="M16.9538 33.1234H31.0457C31.0449 32.6842 30.8701 32.2633 30.5596 31.9528C30.2491 31.6423 29.8282 31.4675 29.389 31.4667H18.6285C18.1866 31.4667 17.7624 31.6403 17.4474 31.9503C17.1324 32.2602 16.9519 32.6815 16.9448 33.1234H16.9538Z" fill="#FFD05B"/>
<path d="M33.2318 33.0364H14.7925V39.2389H33.2318V33.0364Z" fill="#E6E9EE"/>
<path d="M27.9551 34.8071H20.0688V37.4469H27.9551V34.8071Z" fill="#BA7958"/>
<path fill-rule="evenodd" clip-rule="evenodd" d="M20.7333 36.4065C20.8027 36.3998 20.867 36.3674 20.9137 36.3156C20.9605 36.2639 20.9862 36.1966 20.9859 36.1269C20.9859 36.0599 20.9593 35.9957 20.9119 35.9483C20.8645 35.901 20.8003 35.8744 20.7333 35.8744C20.6629 35.8726 20.5945 35.8977 20.5419 35.9446C20.4894 35.9916 20.4568 36.0568 20.4507 36.1269C20.4557 36.1999 20.4872 36.2686 20.5392 36.3201C20.5912 36.3716 20.6602 36.4023 20.7333 36.4065Z" fill="#FEFEFE"/>
<path fill-rule="evenodd" clip-rule="evenodd" d="M27.3688 36.4067C27.4384 36.4007 27.5032 36.3685 27.5501 36.3166C27.5969 36.2647 27.6224 36.197 27.6213 36.1271C27.6213 36.0602 27.5947 35.9959 27.5474 35.9485C27.5 35.9012 27.4358 35.8746 27.3688 35.8746C27.3018 35.8746 27.2376 35.9012 27.1902 35.9485C27.1428 35.9959 27.1162 36.0602 27.1162 36.1271C27.1152 36.197 27.1407 36.2647 27.1876 36.3166C27.2344 36.3685 27.2992 36.4007 27.3688 36.4067Z" fill="#FEFEFE"/>
</g>
<defs>
<clipPath id="clip0_220_1802">
<rect width="48" height="48" fill="white"/>
</clipPath>
</defs>
</svg>
