<svg width="48" height="48" viewBox="0 0 48 48" fill="none" xmlns="http://www.w3.org/2000/svg">
<g clip-path="url(#clip0_264_784)">
<path fill-rule="evenodd" clip-rule="evenodd" d="M48.003 24.0015C48.0036 19.2543 46.5964 14.6136 43.9595 10.6661C41.3225 6.71871 37.5742 3.64191 33.1886 1.82483C28.8029 0.00775293 23.9769 -0.46799 19.3209 0.457774C14.6649 1.38354 10.3879 3.66922 7.03095 7.02578C3.67398 10.3823 1.38776 14.659 0.461413 19.3149C-0.464934 23.9708 0.0102003 28.7969 1.82673 33.1828C3.64326 37.5686 6.71959 41.3173 10.6667 43.9548C14.6138 46.5922 19.2543 48 24.0015 48C30.3624 47.9865 36.459 45.4538 40.9572 40.9562C45.4553 36.4587 47.9887 30.3624 48.003 24.0015Z" fill="white"/>
<path fill-rule="evenodd" clip-rule="evenodd" d="M26.5239 15.3275H21.3887L14.8193 1.82497C16.2753 1.23047 17.7857 0.779351 19.3292 0.478027L23.9864 10.078L24.287 10.6974L24.5667 11.2987L25.9707 14.188L26.2534 14.7893L26.5239 15.3275Z" fill="#F1543F"/>
<path fill-rule="evenodd" clip-rule="evenodd" d="M26.6566 20.1832H21.3319C21.2483 20.186 21.1662 20.1596 21.0999 20.1086C21.0335 20.0576 20.9869 19.9851 20.9681 19.9035L19.9008 16.5332C19.8286 16.3008 19.8138 16.0544 19.8578 15.8151C19.9018 15.5757 20.0032 15.3506 20.1534 15.1592C20.2963 14.9662 20.4826 14.8096 20.6973 14.702C20.912 14.5944 21.1489 14.5389 21.3891 14.5398H26.6115C26.8555 14.5386 27.0964 14.5939 27.3155 14.7014C27.5346 14.8088 27.7258 14.9655 27.8743 15.1592C28.0252 15.3503 28.1249 15.5769 28.1638 15.8173C28.2027 16.0577 28.1796 16.3041 28.0967 16.5332L27.0865 19.9035C27.0487 19.9842 26.9894 20.0529 26.9152 20.1022C26.8409 20.1515 26.7546 20.1795 26.6656 20.1832H26.6566ZM21.5755 19.3984H26.386L27.312 16.3107C27.3578 16.1992 27.3717 16.0771 27.352 15.9582C27.3324 15.8392 27.28 15.7281 27.2008 15.6372C27.1315 15.5386 27.0384 15.4593 26.93 15.4067C26.8217 15.3541 26.7017 15.33 26.5814 15.3366H21.3891C21.2733 15.3412 21.1597 15.3704 21.0561 15.4222C20.9524 15.4741 20.8609 15.5473 20.7877 15.6372C20.7138 15.7309 20.6646 15.8417 20.6447 15.9594C20.6247 16.077 20.6346 16.1978 20.6735 16.3107L21.5755 19.3984Z" fill="white"/>
<path fill-rule="evenodd" clip-rule="evenodd" d="M37.2485 31.3556C37.4422 31.165 37.5961 30.9378 37.7011 30.6872C37.8061 30.4366 37.8602 30.1676 37.8602 29.8959C37.8602 29.6242 37.8061 29.3552 37.7011 29.1045C37.5961 28.8539 37.4422 28.6267 37.2485 28.4362C36.9528 28.1468 36.7536 27.7732 36.6783 27.3663C36.6029 26.9595 36.6551 26.5393 36.8276 26.1632C37.0324 25.649 37.0264 25.0747 36.8109 24.5649C36.5954 24.055 36.1877 23.6506 35.6761 23.4393C35.2941 23.2876 34.9667 23.0242 34.7366 22.6837C34.5065 22.3431 34.3844 21.9411 34.3862 21.5301C34.3761 20.9834 34.1536 20.462 33.7659 20.0765C33.3781 19.691 32.8555 19.4715 32.3087 19.4646C31.8959 19.4595 31.4933 19.335 31.1497 19.1061C30.8061 18.8772 30.5362 18.5537 30.3725 18.1747C30.2713 17.9208 30.1208 17.6894 29.9297 17.4939C29.7387 17.2984 29.5108 17.1426 29.2593 17.0355C29.0077 16.9285 28.7375 16.8723 28.4641 16.8702C28.1908 16.8681 27.9197 16.9201 27.6665 17.0232C27.2876 17.1806 26.8711 17.2246 26.4676 17.1499C26.0642 17.0752 25.691 16.8849 25.3936 16.6023C25.2035 16.4029 24.9749 16.2442 24.7217 16.1357C24.4684 16.0273 24.1958 15.9714 23.9204 15.9714C23.6449 15.9714 23.3723 16.0273 23.119 16.1357C22.8658 16.2442 22.6372 16.4029 22.4471 16.6023C22.1573 16.8973 21.7837 17.0959 21.377 17.1712C20.9704 17.2465 20.5504 17.1949 20.1742 17.0232C19.921 16.9201 19.6499 16.8681 19.3766 16.8702C19.1032 16.8723 18.833 16.9285 18.5814 17.0355C18.3299 17.1426 18.102 17.2984 17.911 17.4939C17.7199 17.6894 17.5694 17.9208 17.4682 18.1747C17.3156 18.5579 17.0508 18.8861 16.7086 19.1162C16.3663 19.3464 15.9625 19.4678 15.55 19.4646C15.0012 19.4716 14.4769 19.6927 14.0887 20.0808C13.7006 20.4689 13.4795 20.9933 13.4725 21.5421C13.4707 21.9523 13.3471 22.3527 13.1175 22.6926C12.8879 23.0324 12.5625 23.2965 12.1827 23.4513C11.9292 23.5553 11.6988 23.7085 11.5049 23.9021C11.311 24.0956 11.1573 24.3256 11.0527 24.5789C10.9482 24.8322 10.8948 25.1036 10.8958 25.3776C10.8967 25.6516 10.9519 25.9227 11.0582 26.1752C11.2099 26.5571 11.2483 26.9746 11.1688 27.3777C11.0894 27.7808 10.8954 28.1525 10.6102 28.4482C10.4165 28.6388 10.2627 28.866 10.1576 29.1166C10.0526 29.3672 9.99854 29.6362 9.99854 29.9079C9.99854 30.1796 10.0526 30.4486 10.1576 30.6993C10.2627 30.9499 10.4165 31.1771 10.6102 31.3676C10.9032 31.6585 11.1024 32.0304 11.1823 32.4355C11.2621 32.8406 11.2189 33.2603 11.0582 33.6406C10.9523 33.8932 10.8975 34.1642 10.8967 34.4381C10.896 34.7119 10.9494 34.9833 11.0539 35.2364C11.1584 35.4896 11.3119 35.7196 11.5056 35.9132C11.6994 36.1068 11.9295 36.2602 12.1827 36.3645C12.5647 36.5154 12.8922 36.778 13.1223 37.1182C13.3525 37.4583 13.4745 37.86 13.4725 38.2707C13.4795 38.8195 13.7006 39.3439 14.0887 39.732C14.4769 40.1201 15.0012 40.3412 15.55 40.3482C15.9636 40.3517 16.3672 40.4758 16.7112 40.7055C17.0552 40.9352 17.3246 41.2604 17.4863 41.6411C17.5871 41.8953 17.7374 42.1269 17.9285 42.3225C18.1195 42.5182 18.3475 42.6739 18.5992 42.7808C18.8509 42.8876 19.1214 42.9434 19.3948 42.9449C19.6683 42.9464 19.9393 42.8936 20.1922 42.7896C20.5694 42.6368 20.9826 42.5958 21.3824 42.6715C21.7823 42.7472 22.1519 42.9364 22.4471 43.2165C22.6372 43.4159 22.8658 43.5746 23.119 43.6831C23.3723 43.7915 23.6449 43.8475 23.9204 43.8475C24.1958 43.8475 24.4684 43.7915 24.7217 43.6831C24.9749 43.5746 25.2035 43.4159 25.3936 43.2165C25.6826 42.9203 26.0561 42.7205 26.4629 42.6447C26.8698 42.5688 27.2902 42.6204 27.6665 42.7926C27.9194 42.8966 28.1905 42.9495 28.4639 42.9479C28.7374 42.9464 29.0078 42.8906 29.2595 42.7838C29.5112 42.677 29.7392 42.5212 29.9303 42.3256C30.1213 42.1299 30.2716 41.8983 30.3725 41.6441C30.5341 41.2634 30.8035 40.9382 31.1475 40.7085C31.4915 40.4788 31.8951 40.3547 32.3087 40.3513C32.8575 40.3442 33.3819 40.1231 33.77 39.735C34.1581 39.3469 34.3792 38.8225 34.3862 38.2737C34.3883 37.864 34.5119 37.464 34.7416 37.1247C34.9712 36.7853 35.2964 36.5218 35.6761 36.3675C36.1877 36.1562 36.5954 35.7518 36.8109 35.2419C37.0264 34.7321 37.0324 34.1578 36.8276 33.6436C36.661 33.2663 36.6121 32.8476 36.6872 32.4421C36.7623 32.0366 36.9579 31.6632 37.2485 31.3706V31.3556Z" fill="#FFD05B"/>
<path fill-rule="evenodd" clip-rule="evenodd" d="M33.7972 29.8944C33.7942 27.9425 33.2124 26.0354 32.1254 24.4142C31.0384 22.793 29.495 21.5306 27.6905 20.7867C25.8859 20.0428 23.9013 19.8507 21.9876 20.2349C20.0739 20.619 18.3171 21.5621 16.9394 22.9448C15.5618 24.3275 14.6251 26.0877 14.248 28.0028C13.8708 29.9179 14.0701 31.9018 14.8206 33.7037C15.5712 35.5055 16.8392 37.0442 18.4643 38.1253C20.0895 39.2064 21.9988 39.7812 23.9506 39.777C26.5674 39.7722 29.0753 38.7285 30.9228 36.8754C32.7703 35.0222 33.8064 32.5112 33.8032 29.8944H33.7972Z" fill="#F9B54C"/>
<path fill-rule="evenodd" clip-rule="evenodd" d="M33.1504 1.82498L26.581 15.3275H21.4458L21.7254 14.7653L21.978 14.164L23.4091 11.2747L23.6917 10.6733L23.9924 10.054L28.6526 0.453979C30.1896 0.757931 31.6938 1.20899 33.1444 1.80092L33.1504 1.82498Z" fill="#FF7058"/>
</g>
<defs>
<clipPath id="clip0_264_784">
<rect width="48" height="48" fill="white"/>
</clipPath>
</defs>
</svg>
