<svg width="48" height="48" viewBox="0 0 48 48" fill="none" xmlns="http://www.w3.org/2000/svg">
<g clip-path="url(#clip0_220_1839)">
<path fill-rule="evenodd" clip-rule="evenodd" d="M48.0028 23.9828C48.0096 28.7345 46.6076 33.3815 43.9741 37.3357C41.3406 41.2899 37.594 44.3736 33.2084 46.1966C28.8229 48.0196 23.9954 48.5 19.3369 47.5769C14.6784 46.6538 10.3982 44.3688 7.038 41.011C3.67779 37.6532 1.38855 33.3735 0.45995 28.7135C-0.468655 24.0535 0.00511067 19.2225 1.82132 14.832C3.63752 10.4415 6.71452 6.68871 10.663 4.04851C14.6114 1.40832 19.2539 -0.00061404 24.0028 2.00754e-07C30.3624 0.000822754 36.4616 2.52684 40.9614 7.02341C45.4612 11.52 47.9937 17.6195 48.0028 23.9828V23.9828Z" fill="white"/>
<path fill-rule="evenodd" clip-rule="evenodd" d="M41.7826 31.5525H38.2485L39.0085 28.5734H41.0226L41.7826 31.5525Z" fill="#FF7058"/>
<path d="M40.3821 20.6844H39.6812V29.5653H40.3821V20.6844Z" fill="#FF7058"/>
<path fill-rule="evenodd" clip-rule="evenodd" d="M41.4326 28.5767C41.4326 28.2994 41.3504 28.0283 41.1964 27.7978C41.0425 27.5673 40.8237 27.3876 40.5676 27.2815C40.3116 27.1754 40.0299 27.1476 39.7581 27.2017C39.4863 27.2558 39.2367 27.3893 39.0407 27.5854C38.8448 27.7814 38.7114 28.0312 38.6573 28.3032C38.6032 28.5751 38.631 28.857 38.737 29.1132C38.8431 29.3693 39.0227 29.5883 39.2531 29.7423C39.4835 29.8964 39.7544 29.9786 40.0315 29.9786C40.4026 29.9769 40.758 29.8287 41.0204 29.5661C41.2828 29.3036 41.4309 28.948 41.4326 28.5767V28.5767Z" fill="#324A5E"/>
<path fill-rule="evenodd" clip-rule="evenodd" d="M3.76855 20.4405L24.0031 12.7268L44.2658 20.4405L33.9453 24.3834V21.2885C33.9453 19.0073 28.7787 17.9559 23.9906 17.9559C19.2025 17.9559 14.036 19.0167 14.036 21.2979V24.3928L3.76855 20.4405Z" fill="#324A5E"/>
<path fill-rule="evenodd" clip-rule="evenodd" d="M21.6667 25.1343C22.3954 25.0749 23.1835 25.0467 24.0029 25.0467C24.8223 25.0467 25.6354 25.0749 26.336 25.1343C29.1131 25.2783 32.4094 25.7602 34.2202 26.7396V21.2665C34.2202 18.929 28.9349 17.8494 24.0029 17.8494C19.0709 17.8494 13.8105 18.929 13.8105 21.2665V26.7303C15.6213 25.7383 18.8926 25.2689 21.6667 25.1249V25.1343Z" fill="#2B3B4E"/>
<path fill-rule="evenodd" clip-rule="evenodd" d="M33.8984 28.9206C33.8795 28.8547 33.8375 28.7979 33.78 28.7605C33.7226 28.7232 33.6536 28.7078 33.5857 28.7172C27.2175 29.1272 20.8295 29.1272 14.4614 28.7172C14.3931 28.7049 14.3228 28.7191 14.2647 28.7569C14.2065 28.7947 14.165 28.8533 14.1486 28.9206C13.921 29.5985 13.8027 30.3084 13.7983 31.0235C13.7983 31.1065 13.8313 31.1861 13.8899 31.2448C13.9486 31.3035 14.0281 31.3364 14.1111 31.3364H33.936C34.0189 31.3364 34.0984 31.3035 34.1571 31.2448C34.2157 31.1861 34.2487 31.1065 34.2487 31.0235C34.2753 30.3058 34.1551 29.5902 33.8953 28.9206H33.8984Z" fill="white"/>
<path fill-rule="evenodd" clip-rule="evenodd" d="M34.5706 30.9956C34.5706 30.9126 34.5376 30.833 34.479 30.7744C34.4203 30.7157 34.3408 30.6827 34.2578 30.6827H25.6667C25.6232 30.6851 25.5805 30.6961 25.5412 30.715C25.5019 30.7339 25.4667 30.7604 25.4377 30.793C25.4086 30.8256 25.3863 30.8635 25.3719 30.9047C25.3575 30.946 25.3515 30.9896 25.354 31.0332H22.6957C22.6982 30.9896 22.6921 30.946 22.6778 30.9047C22.6634 30.8635 22.6411 30.8256 22.612 30.793C22.583 30.7604 22.5478 30.7339 22.5084 30.715C22.4691 30.6961 22.4265 30.6851 22.3829 30.6827H13.7825C13.6995 30.6827 13.62 30.7157 13.5613 30.7744C13.5027 30.833 13.4697 30.9126 13.4697 30.9956C13.388 32.193 13.6186 33.391 14.139 34.4723C14.1657 34.5269 14.2077 34.5726 14.2599 34.6037C14.3121 34.6348 14.3722 34.65 14.433 34.6475H14.4611C17.0287 34.4723 19.6276 34.3846 22.1703 34.3565L23.6871 34.3252L25.8763 34.3565C28.4158 34.3846 31.0147 34.4723 33.5854 34.6475C33.6577 34.6557 33.7303 34.636 33.7884 34.5924C33.8466 34.5487 33.8859 34.4845 33.8982 34.4128C34.4017 33.3471 34.6328 32.1728 34.5706 30.9956V30.9956Z" fill="#E6E9EE"/>
<path fill-rule="evenodd" clip-rule="evenodd" d="M23.9716 32.6916L24.7003 33.0139L23.1241 36.6063L22.6268 35.7301L21.6636 35.9648L23.2429 32.3693L23.9716 32.6916Z" fill="#F1543F"/>
<path fill-rule="evenodd" clip-rule="evenodd" d="M24.4095 33.1296L23.709 33.5395L25.6355 36.9285L26.0452 36.0523L27.0084 36.1681L25.0819 32.7509L24.4095 33.1296Z" fill="#F1543F"/>
<path fill-rule="evenodd" clip-rule="evenodd" d="M26.8585 31.756C26.9348 31.6677 26.974 31.5534 26.9682 31.4368C26.9624 31.3203 26.9119 31.2105 26.8273 31.1302V31.1302C26.766 31.0706 26.7227 30.995 26.7023 30.9121C26.6818 30.8291 26.685 30.742 26.7115 30.6608C26.7493 30.5599 26.7459 30.4482 26.702 30.3498C26.6581 30.2514 26.5773 30.1743 26.477 30.1351V30.1351C26.3943 30.1116 26.3214 30.0621 26.269 29.9939C26.2166 29.9257 26.1875 29.8424 26.1861 29.7564C26.1704 29.6436 26.1147 29.5401 26.0292 29.4649C25.9437 29.3897 25.834 29.3476 25.7201 29.3465V29.3465C25.6375 29.3474 25.5561 29.3265 25.4842 29.2858C25.4122 29.2452 25.3523 29.1862 25.3104 29.1149V29.1149C25.2914 29.0616 25.2609 29.0132 25.2211 28.9729C25.1813 28.9327 25.1332 28.9016 25.0802 28.8819C25.0271 28.8623 24.9704 28.8544 24.914 28.859C24.8576 28.8636 24.803 28.8804 24.7538 28.9084V28.9084C24.6771 28.9363 24.595 28.9457 24.514 28.9359C24.4331 28.9261 24.3556 28.8974 24.2878 28.8521V28.8521C24.2491 28.8124 24.2025 28.7814 24.151 28.7611C24.0995 28.7408 24.0443 28.7317 23.989 28.7344C23.9337 28.737 23.8796 28.7514 23.8303 28.7766C23.781 28.8017 23.7376 28.837 23.7029 28.8802V28.8802C23.6453 28.9435 23.5687 28.9862 23.4846 29.002C23.4005 29.0178 23.3136 29.0058 23.2369 28.9678V28.9678C23.1324 28.9356 23.0195 28.945 22.9216 28.9939C22.8238 29.0429 22.7485 29.1277 22.7115 29.2307C22.6835 29.3113 22.6324 29.3819 22.5645 29.4337C22.4967 29.4854 22.4151 29.516 22.33 29.5217V29.5217C22.2739 29.5216 22.2183 29.533 22.1668 29.5554C22.1153 29.5778 22.0691 29.6106 22.0309 29.6517C21.9927 29.6929 21.9634 29.7415 21.9449 29.7945C21.9264 29.8476 21.9191 29.9038 21.9234 29.9598C21.933 30.0479 21.9121 30.1366 21.8643 30.2112C21.8165 30.2857 21.7447 30.3417 21.6607 30.3698V30.3698C21.5634 30.4196 21.4883 30.5041 21.4501 30.6066C21.4119 30.7091 21.4134 30.8222 21.4543 30.9236V30.9236C21.4969 30.9975 21.5144 31.0831 21.5043 31.1677C21.4941 31.2523 21.4568 31.3314 21.398 31.393V31.393C21.3207 31.4806 21.2804 31.5949 21.2856 31.7117C21.2909 31.8284 21.3413 31.9386 21.4262 32.0189V32.0189C21.4874 32.0778 21.5308 32.1528 21.5513 32.2353C21.5718 32.3178 21.5685 32.4044 21.5419 32.4852V32.4852C21.5229 32.5368 21.5147 32.5918 21.5178 32.6468C21.5209 32.7018 21.5352 32.7555 21.5598 32.8048C21.5844 32.854 21.6188 32.8977 21.6609 32.9331C21.703 32.9686 21.7519 32.995 21.8046 33.0109V33.0109C21.8814 33.0451 21.9485 33.0979 21.9998 33.1646C22.0511 33.2312 22.0851 33.3096 22.0986 33.3926V33.3926C22.1006 33.4481 22.1135 33.5027 22.1366 33.5532C22.1597 33.6037 22.1925 33.6491 22.2332 33.6869C22.2739 33.7247 22.3216 33.754 22.3736 33.7734C22.4256 33.7927 22.4809 33.8015 22.5364 33.7995C22.6189 33.7988 22.7001 33.8201 22.7716 33.8614C22.8431 33.9027 22.9023 33.9623 22.943 34.0341C22.9619 34.0875 22.9924 34.136 23.0323 34.1763C23.0721 34.2165 23.1203 34.2474 23.1735 34.2668C23.2267 34.2863 23.2835 34.2937 23.3398 34.2887C23.3962 34.2836 23.4508 34.2661 23.4997 34.2375V34.2375C23.5765 34.2099 23.6588 34.2008 23.7398 34.2111C23.8208 34.2215 23.8982 34.2509 23.9656 34.297C24.0043 34.3367 24.0509 34.3677 24.1024 34.388C24.1539 34.4082 24.2091 34.4174 24.2644 34.4147C24.3197 34.412 24.3738 34.3977 24.4231 34.3725C24.4724 34.3474 24.5158 34.312 24.5505 34.2688V34.2688C24.6078 34.2052 24.6845 34.1621 24.7687 34.1463C24.8529 34.1304 24.9399 34.1427 25.0165 34.1812V34.1812C25.1253 34.2093 25.2406 34.1984 25.3423 34.1504C25.4439 34.1024 25.5256 34.0203 25.5732 33.9184V33.9184C25.59 33.8371 25.6337 33.7638 25.6973 33.7105C25.7608 33.6571 25.8405 33.6267 25.9234 33.6242V33.6242C25.9813 33.6255 26.0388 33.615 26.0925 33.5935C26.1462 33.5719 26.195 33.5397 26.2359 33.4987C26.2768 33.4578 26.309 33.409 26.3305 33.3553C26.3521 33.3015 26.3625 33.244 26.3613 33.1861C26.3458 33.1015 26.361 33.0141 26.4039 32.9396C26.4469 32.8651 26.5149 32.8083 26.5958 32.7793V32.7793C26.646 32.7564 26.6911 32.7238 26.7286 32.6833C26.766 32.6428 26.7951 32.5952 26.814 32.5434C26.8329 32.4915 26.8413 32.4365 26.8388 32.3813C26.8362 32.3262 26.8227 32.2722 26.7991 32.2223V32.2223C26.7572 32.1486 26.7403 32.0633 26.751 31.9792C26.7617 31.8951 26.7995 31.8168 26.8585 31.756V31.756Z" fill="#FF7058"/>
<path fill-rule="evenodd" clip-rule="evenodd" d="M26.1046 31.4929C26.0873 31.0987 25.9532 30.7185 25.7194 30.4007C25.4856 30.0829 25.1627 29.8418 24.7916 29.7081C24.4206 29.5743 24.0182 29.554 23.6355 29.6496C23.2529 29.7452 22.9073 29.9525 22.6427 30.2451C22.3781 30.5376 22.2063 30.9023 22.1493 31.2928C22.0923 31.6833 22.1526 32.0819 22.3225 32.438C22.4924 32.7941 22.7643 33.0916 23.1037 33.2928C23.443 33.4939 23.8344 33.5896 24.2281 33.5676C24.7509 33.5385 25.241 33.3043 25.5923 32.9159C25.9436 32.5275 26.1276 32.0162 26.1046 31.4929Z" fill="white"/>
<path fill-rule="evenodd" clip-rule="evenodd" d="M25.8701 31.4931C25.853 31.1462 25.7334 30.8122 25.5265 30.5334C25.3196 30.2545 25.0347 30.0433 24.7078 29.9265C24.381 29.8097 24.0268 29.7926 23.6902 29.8772C23.3536 29.9618 23.0496 30.1445 22.8168 30.402C22.5839 30.6595 22.4326 30.9804 22.382 31.324C22.3314 31.6675 22.3838 32.0184 22.5326 32.3322C22.6813 32.646 22.9198 32.9086 23.2177 33.0867C23.5156 33.2649 23.8597 33.3506 24.2063 33.3331C24.6687 33.304 25.1014 33.0954 25.4122 32.7517C25.723 32.4079 25.8874 31.9563 25.8701 31.4931V31.4931Z" fill="#FF7058"/>
</g>
<defs>
<clipPath id="clip0_220_1839">
<rect width="48" height="48" fill="white"/>
</clipPath>
</defs>
</svg>
