<svg width="48" height="48" viewBox="0 0 48 48" fill="none" xmlns="http://www.w3.org/2000/svg">
<g clip-path="url(#clip0_220_1819)">
<path fill-rule="evenodd" clip-rule="evenodd" d="M48.0028 23.9859C48.009 28.7375 46.6064 33.3842 43.9726 37.338C41.3387 41.2918 37.5919 44.375 33.2063 46.1975C28.8206 48.02 23.9933 48.4999 19.335 47.5765C14.6767 46.6531 10.3968 44.3678 7.0369 41.0099C3.677 37.652 1.38807 33.3723 0.459719 28.7123C-0.468632 24.0524 0.00532169 19.2216 1.82162 14.8313C3.63792 10.4409 6.71493 6.68834 10.6633 4.04828C14.6117 1.40823 19.254 -0.000614869 24.0028 2.01309e-07C30.3632 -4.17538e-06 36.4634 2.52618 40.9635 7.0236C45.4635 11.521 47.9954 17.6219 48.0028 23.9859V23.9859Z" fill="white"/>
<path fill-rule="evenodd" clip-rule="evenodd" d="M37.9298 21.0069H35.2715L35.825 18.7569H37.345L37.9298 21.0069Z" fill="#FFD05B"/>
<path d="M36.8758 12.7955H36.3501V19.5141H36.8758V12.7955Z" fill="#FFD05B"/>
<path fill-rule="evenodd" clip-rule="evenodd" d="M37.6669 18.7569C37.6694 18.4744 37.5605 18.2022 37.3638 17.9995C37.1671 17.7968 36.8984 17.6799 36.6161 17.6742C36.3309 17.679 36.0588 17.7947 35.8574 17.9968C35.656 18.1989 35.5411 18.4715 35.5371 18.7569C35.5429 19.0388 35.6593 19.3072 35.8612 19.5039C36.0631 19.7007 36.3343 19.81 36.6161 19.8083C36.7542 19.8087 36.891 19.7818 37.0187 19.7291C37.1464 19.6764 37.2624 19.599 37.36 19.5013C37.4577 19.4036 37.5351 19.2875 37.5878 19.1597C37.6404 19.032 37.6673 18.8951 37.6669 18.7569V18.7569Z" fill="#F9B54C"/>
<path fill-rule="evenodd" clip-rule="evenodd" d="M8.70068 12.3292L24.0001 6.4837L39.2714 12.3292L24.0001 18.1716L8.70068 12.3292Z" fill="#324A5E"/>
<path fill-rule="evenodd" clip-rule="evenodd" d="M36.1781 26.0608C36.1787 23.6915 35.4771 21.3751 34.162 19.4048C32.8469 17.4345 30.9773 15.8986 28.7898 14.9915C26.6023 14.0844 24.1951 13.8467 21.8726 14.3086C19.55 14.7704 17.4166 15.911 15.742 17.5862C14.0674 19.2613 12.9268 21.3958 12.4646 23.7195C12.0025 26.0433 12.2394 28.452 13.1454 30.641C14.0514 32.8301 15.5859 34.7011 17.5547 36.0175C19.5235 37.3339 21.8383 38.0365 24.2062 38.0365C27.3801 38.034 30.4232 36.7716 32.6678 34.5264C34.9123 32.2811 36.1748 29.2365 36.1781 26.0608V26.0608Z" fill="#E8FEE4"/>
<path fill-rule="evenodd" clip-rule="evenodd" d="M26.3083 35.3201C26.2273 35.3998 26.1275 35.4576 26.0181 35.4883C25.9087 35.5189 25.7934 35.5213 25.6828 35.4953C25.5592 35.4562 25.4326 35.4269 25.3044 35.4077C25.1544 35.4719 25.0232 35.5731 24.9229 35.7018C24.8134 35.8958 24.6765 36.0729 24.5163 36.2276C24.4736 36.2887 24.4438 36.3579 24.4287 36.431C24.4287 36.6062 24.632 36.6344 24.779 36.6344C24.926 36.6344 25.0417 36.5186 25.1856 36.4904C25.3294 36.4623 25.4795 36.4904 25.6265 36.431C25.8198 36.3806 25.9925 36.2712 26.1207 36.118C26.2336 36.0115 26.3231 35.8825 26.3834 35.7394C26.4099 35.7086 26.4289 35.6722 26.439 35.6328C26.4491 35.5935 26.4499 35.5523 26.4414 35.5126C26.433 35.4729 26.4154 35.4357 26.3901 35.4039C26.3649 35.3722 26.3326 35.3466 26.2958 35.3294L26.3083 35.3201Z" fill="#ABCB57"/>
<path fill-rule="evenodd" clip-rule="evenodd" d="M29.2009 19.458C29.0258 19.5456 29.0539 19.749 29.1102 19.9242V19.8366C29.1327 19.9521 29.1946 20.0561 29.2854 20.1309C29.3761 20.2056 29.49 20.2465 29.6075 20.2465C29.7234 20.2695 29.8437 20.2534 29.9495 20.2007C30.0553 20.1481 30.1407 20.0619 30.1923 19.9555C29.9578 19.8085 29.6951 19.6614 29.4324 19.4861C29.4042 19.4861 29.2854 19.4267 29.2009 19.458V19.458ZM36.1783 26.0608V25.9105C36.0336 25.8606 35.8959 25.7922 35.7686 25.7071C35.5918 25.5939 35.4459 25.4386 35.3438 25.2551C35.2418 25.0716 35.1868 24.8657 35.1837 24.6557C35.1837 24.4805 35.2432 24.3615 35.2432 24.1863C35.1678 23.9693 35.0485 23.7701 34.8929 23.6011C34.5426 23.2538 34.2205 22.9596 33.8702 22.6624C33.4636 22.3119 32.8788 22.0772 32.5004 22.3995C32.4097 22.4871 32.3534 22.5747 32.2658 22.6624C32.0461 22.7396 31.805 22.7284 31.5934 22.6311C31.3901 22.5434 31.0399 22.5747 31.0086 22.8376C30.9773 23.1004 31.3902 23.2475 31.4777 23.5386C31.5059 23.6262 31.4777 23.7138 31.5059 23.8014C31.5259 23.9002 31.5728 23.9915 31.6414 24.0654C31.71 24.1392 31.7976 24.1927 31.8947 24.2198C31.9917 24.247 32.0943 24.2469 32.1913 24.2194C32.2882 24.192 32.3757 24.1383 32.4441 24.0643C32.6192 23.8014 32.6474 23.3915 32.9382 23.3915C33.0903 23.4536 33.2211 23.5585 33.3149 23.6935C33.4087 23.8284 33.4615 23.9876 33.4668 24.1519C33.3792 23.9172 33.0258 24.0048 32.9101 24.1801C32.8248 24.3716 32.7277 24.5576 32.6192 24.7371C32.3252 25.0281 31.7998 24.9405 31.4214 24.7652C30.5739 24.4742 29.7858 24.1801 28.9413 23.889C28.8538 23.8577 28.7349 23.8014 28.6474 23.8577C28.5004 23.889 28.4722 24.0643 28.3565 24.1519C28.2595 24.2098 28.1465 24.2352 28.0341 24.2245C27.9216 24.2138 27.8155 24.1676 27.731 24.0924C27.5701 23.9659 27.3935 23.8607 27.2056 23.7795C27.156 23.7576 27.1024 23.7463 27.0482 23.7464C26.9939 23.7465 26.9403 23.758 26.8908 23.7801C26.8413 23.8022 26.797 23.8345 26.7607 23.8748C26.7244 23.9151 26.697 23.9626 26.6802 24.0142C26.6716 24.1055 26.6913 24.1973 26.7365 24.2771C27.1181 25.0093 28.05 25.1251 28.663 25.5914C28.7224 25.3003 29.1321 25.244 29.3948 25.3879C29.6575 25.5319 29.7076 25.8542 29.7733 26.1484C29.7668 26.4433 29.8379 26.7346 29.9797 26.9933C30.0986 27.176 30.2758 27.3132 30.4824 27.3825C30.6891 27.4518 30.9131 27.4492 31.1181 27.375C31.3808 27.228 31.6716 27.0246 31.8749 27.1998C32.0782 27.375 31.9343 27.6974 32.0219 27.9602C32.0532 28.0478 32.1376 28.1355 32.1376 28.2512C32.1689 28.4546 31.8467 28.6017 31.6435 28.5141C31.4402 28.4265 31.2932 28.2231 31.1181 28.0478C30.9429 27.8726 30.7365 27.6974 30.5332 27.785C30.2705 27.7537 30.0954 28.076 30.183 28.3389C30.2705 28.6017 30.5332 28.7175 30.7365 28.8364C30.7084 29.068 30.5051 29.1275 30.2705 29.1275C30.0759 29.1232 29.8851 29.0728 29.7138 28.9804C29.2197 28.7175 28.6349 28.3389 28.5754 27.785C28.6053 27.6005 28.6053 27.4124 28.5754 27.228C28.5473 26.7022 28.1095 26.2642 27.6998 25.9137C26.9711 25.535 26.2705 25.1251 25.4511 25.2127C25.1567 25.2671 24.8721 25.3652 24.6067 25.5037C24.094 25.7704 23.6134 26.0948 23.1744 26.4707C22.8552 26.7448 22.6308 27.1128 22.5332 27.5221C22.5051 28.076 22.9116 28.5454 23.3495 28.8927C23.7873 29.2401 24.2877 29.5655 24.4879 30.0631C24.1095 30.207 24.05 30.7046 23.9343 31.0864C23.6435 31.9313 22.5332 32.2818 22.0579 33.0703C21.8264 33.5084 21.767 34.0373 21.4762 34.4159C21.3449 34.5736 21.2394 34.751 21.1634 34.9416C20.9007 35.4955 21.4574 36.1683 22.0672 36.2559C22.6771 36.3436 23.2932 35.9931 23.8217 35.6301C23.9402 35.5185 24.078 35.4294 24.2283 35.3672C24.3539 35.3424 24.4819 35.3319 24.6098 35.3359C24.9007 35.3359 25.2353 35.2796 25.5137 35.2796C25.3667 35.2796 25.3385 35.0731 25.4261 34.9854C25.5137 34.8978 25.6325 34.8697 25.7201 34.782C26.1132 34.5382 26.4112 34.1672 26.5645 33.7306C26.7709 34.1405 27.412 34.0435 27.8811 33.9058C28.2877 33.7306 28.7537 33.5929 29.1947 33.4365C29.0345 33.4322 28.8793 33.3802 28.7489 33.2871C28.6185 33.194 28.5189 33.064 28.4629 32.9139C28.3908 32.5996 28.4215 32.2706 28.5504 31.9751C28.6998 31.7236 28.8275 31.4598 28.932 31.1865C29.0195 30.8923 29.0195 30.6013 29.104 30.3385C29.1884 30.0756 29.3104 29.7533 29.6013 29.6657C29.7238 30.2472 29.6524 30.8529 29.398 31.3899C29.1947 31.828 28.9007 32.3287 29.1947 32.676C29.3346 32.815 29.5202 32.8984 29.717 32.9107C30.2455 32.9952 30.7396 33.0829 31.2087 33.1736C31.0347 32.5351 30.9454 31.8765 30.9429 31.2147C30.9375 31.1415 30.9511 31.0682 30.9823 31.0019C31.0136 30.9356 31.0614 30.8784 31.1212 30.836C31.3188 31.601 31.6548 32.3233 32.1126 32.9671C32.1785 33.0625 32.2282 33.1683 32.2596 33.28C32.2652 33.3975 32.2558 33.5153 32.2314 33.6305C32.0563 34.1843 31.7623 34.6506 31.7342 35.1951V35.3985C33.1194 34.2727 34.2365 32.8521 35.0041 31.2401C35.7718 29.6281 36.1708 27.8652 36.172 26.0795L36.1783 26.0608ZM32.1345 17.1204C30.8229 15.9622 29.2804 15.0961 27.6091 14.5794C27.4933 14.8705 27.3182 15.1333 27.2306 15.3962C27.1149 15.8061 27.0555 16.335 26.7646 16.6479C26.6458 16.7918 26.4988 16.8794 26.4519 17.0265C26.4011 17.1096 26.3683 17.2024 26.3555 17.2989C26.3428 17.3954 26.3503 17.4936 26.3777 17.587C26.4051 17.6804 26.4517 17.7671 26.5146 17.8414C26.5775 17.9157 26.6552 17.976 26.7428 18.0185C26.9192 18.0876 27.1116 18.1052 27.2976 18.0692C27.4836 18.0332 27.6556 17.9451 27.7936 17.8151C27.8595 17.7347 27.9533 17.6822 28.0563 17.668C28.1751 17.668 28.2908 17.8151 28.369 17.9309C28.6077 18.2328 28.9247 18.4634 29.2854 18.5975C29.646 18.7316 30.0366 18.764 30.4144 18.6913C30.4425 18.4284 30.0641 18.3127 30.0641 18.0498C30.0641 17.8433 30.355 17.7556 30.5582 17.8433C30.7615 17.9309 30.9085 18.1374 31.0837 18.225C31.1952 18.2616 31.3134 18.2728 31.4298 18.2576C31.5462 18.2425 31.6576 18.2014 31.756 18.1374C31.8454 18.0591 31.9097 17.9562 31.9408 17.8415C31.972 17.7269 31.9686 17.6056 31.9312 17.4928C31.901 17.4514 31.88 17.404 31.8698 17.3538C31.8595 17.3035 31.8602 17.2517 31.8718 17.2018C31.903 17.1141 32.05 17.1141 32.1345 17.1141V17.1204ZM21.6951 14.3322C19.2292 14.8733 16.9935 16.1707 15.2994 18.0435C15.4746 18.5411 15.828 19.0074 15.9718 19.5331C16.007 19.788 16.056 20.0408 16.1188 20.2904C16.1477 20.4158 16.213 20.53 16.3065 20.6185C16.3999 20.707 16.5174 20.7659 16.6442 20.7879C16.7478 20.6668 16.807 20.514 16.8121 20.3548C16.8172 20.1955 16.7679 20.0392 16.6724 19.9117C16.8475 19.8241 17.0227 19.7959 17.1102 19.6207C17.1978 19.4455 17.1978 19.2389 17.0227 19.1826C16.9064 19.1669 16.7886 19.1669 16.6724 19.1826C16.3596 19.1826 16.1188 18.804 15.9718 18.4816C16.2996 18.3593 16.6589 18.3505 16.9923 18.4566C17.3257 18.5626 17.6139 18.7775 17.8108 19.0668C17.7232 18.9761 17.6951 18.8603 17.6075 18.7727C18.1527 18.5899 18.7296 18.5207 19.3026 18.5693C19.4604 18.5948 19.6222 18.5742 19.7686 18.5098C19.9718 18.4222 20.0813 18.1969 20.3221 18.1969C20.4838 18.2116 20.6421 18.2517 20.7912 18.3158C21.4167 18.4316 22.0422 17.643 22.5426 17.9653C22.602 17.6711 22.1611 17.4677 21.9578 17.6524C21.9296 17.5929 21.8421 17.5648 21.7826 17.5053C22.0172 17.1924 22.5145 17.3019 22.8053 17.5648C23.0962 17.8276 23.2994 18.2063 23.6528 18.3533C23.9156 18.3533 24.0313 18.0404 24.0594 17.7682C24.017 17.5063 24.0691 17.2378 24.2064 17.0109C24.2537 16.9164 24.3125 16.8281 24.3815 16.748C24.4691 16.4351 23.9437 16.2786 23.828 15.9876C23.7818 15.7283 23.8225 15.461 23.9437 15.2272C24.0313 14.9925 24.0031 14.642 23.7404 14.6013C23.3901 15.0989 22.455 15.0113 22.2486 15.5652C22.1611 15.8562 22.2486 16.2379 21.9578 16.3537C21.7545 16.4413 21.5481 16.2067 21.4918 15.9438C21.4918 15.6809 21.5794 15.4775 21.5794 15.2147C21.5794 15.0989 21.5481 15.0113 21.5481 14.9017C21.5839 14.7139 21.633 14.5288 21.6951 14.3479V14.3322ZM12.2627 26.9808C12.2995 27.4932 12.378 28.0018 12.4973 28.5016C12.5904 28.4716 12.6893 28.4639 12.786 28.4791C12.8827 28.4943 12.9745 28.532 13.0539 28.5892C13.0687 28.6316 13.0961 28.6685 13.1324 28.6948C13.1688 28.7211 13.2124 28.7356 13.2572 28.7363C13.3007 28.7281 13.3409 28.7075 13.3729 28.6768C13.4809 28.4854 13.5409 28.2707 13.5481 28.051C13.8421 28.342 14.1329 28.6768 14.4238 28.9553C14.8929 28.7801 15.0492 28.1104 15.5059 27.9633C15.9625 27.8163 16.4973 28.4014 16.9664 28.2262C17.3166 28.1104 17.4918 27.6723 17.7826 27.4658C18.0954 27.2029 18.6302 27.2624 19.0962 27.35C19.1323 27.0488 19.1015 26.7434 19.0058 26.4556C18.9101 26.1677 18.7519 25.9047 18.5426 25.6852C18.2799 25.51 18.0172 25.3723 18.1048 25.1282C18.1923 24.8841 18.3956 24.8372 18.5426 24.662C18.7177 24.4273 18.4832 24.0768 18.3362 23.7858C18.1892 23.4947 18.0235 23.113 18.3362 22.9377C18.1323 22.6742 17.9747 22.378 17.8702 22.0615C17.6951 21.7705 17.4324 21.4357 17.1102 21.5076C16.8475 21.5076 16.6442 21.711 16.4097 21.8206C16.1184 21.9608 15.8161 22.0769 15.5059 22.1679C15.3423 22.2127 15.1925 22.2977 15.0701 22.4152C14.9477 22.5327 14.8567 22.679 14.8053 22.8407C14.7772 23.1912 14.9804 23.5135 14.8053 23.8327C14.6302 24.1519 14.1048 24.3303 14.2205 24.6526C14.263 24.7347 14.3122 24.8132 14.3675 24.8873C14.4832 25.1188 14.1923 25.4412 13.9859 25.5882L12.2627 26.9808Z" fill="#ABCB57"/>
<path fill-rule="evenodd" clip-rule="evenodd" d="M22.2797 15.7779C24.4689 15.6308 29.9013 15.7184 31.5057 16.5946V12.9427C31.5057 11.2185 27.6214 10.4581 23.9998 10.4581C20.3783 10.4581 16.4658 11.2185 16.4658 12.9427V16.9733C17.8075 16.2441 20.2188 15.8937 22.2766 15.7779H22.2797Z" fill="#2B3B4E"/>
<path fill-rule="evenodd" clip-rule="evenodd" d="M30.6019 36.431C30.6078 36.3584 30.5911 36.2858 30.5541 36.2231C30.5172 36.1604 30.4618 36.1106 30.3955 36.0805C24.4603 33.7597 18.6858 31.0469 13.1101 27.96C13.047 27.9188 12.971 27.9018 12.8963 27.9121C12.8216 27.9225 12.7532 27.9595 12.7036 28.0164C12.2137 28.5331 11.8094 29.1247 11.5058 29.7688C11.4708 29.8469 11.4666 29.9354 11.4938 30.0165C11.521 30.0977 11.5778 30.1656 11.6527 30.2069L29.5793 38.6215C29.661 38.659 29.7537 38.6651 29.8397 38.6385C29.9257 38.612 29.9988 38.5547 30.0452 38.4775C30.3486 37.833 30.537 37.1404 30.6019 36.431V36.431Z" fill="white"/>
<path fill-rule="evenodd" clip-rule="evenodd" d="M30.3396 38.5935C30.3637 38.5114 30.3596 38.4236 30.3278 38.3442C30.296 38.2647 30.2385 38.1982 30.1645 38.1554L22.3959 34.5317C22.3579 34.5106 22.316 34.4977 22.2727 34.4937C22.2294 34.4897 22.1858 34.4948 22.1446 34.5087C22.1034 34.5225 22.0655 34.5448 22.0334 34.5741C22.0013 34.6034 21.9757 34.639 21.9581 34.6788L19.5656 33.5397C19.5998 33.4615 19.6037 33.3733 19.5765 33.2923C19.5493 33.2114 19.4931 33.1434 19.4186 33.1016L11.6532 29.4498C11.5741 29.4188 11.4866 29.4165 11.4061 29.4434C11.3255 29.4703 11.2569 29.5246 11.2122 29.5969C10.6513 30.657 10.3612 31.8395 10.3678 33.0391C10.3723 33.0979 10.3905 33.1548 10.4209 33.2053C10.4513 33.2559 10.4931 33.2986 10.5429 33.3301H10.5711C12.9667 34.2689 15.3592 35.289 17.6672 36.3404L19.0683 36.9663L21.023 37.9051C23.331 39.016 25.6391 40.2145 27.8564 41.4412C27.9252 41.4831 28.0062 41.5 28.0859 41.4892C28.1657 41.4784 28.2392 41.4404 28.2943 41.3817C29.1871 40.6162 29.8877 39.6515 30.3396 38.5654V38.5935Z" fill="#E6E9EE"/>
<path fill-rule="evenodd" clip-rule="evenodd" d="M20 35.6143L20.5254 36.2277L17.6075 38.7968L17.5199 37.8048L16.5566 37.5983L19.5058 35.0292L20 35.6143Z" fill="#F1543F"/>
<path fill-rule="evenodd" clip-rule="evenodd" d="M20.2347 36.1962L19.4185 36.2557L19.7093 40.1704L20.4693 39.5289L21.2855 40.0546L20.9947 36.1399L20.2347 36.1962Z" fill="#F1543F"/>
<path fill-rule="evenodd" clip-rule="evenodd" d="M23.0367 35.993C23.1386 35.9475 23.2194 35.8651 23.263 35.7623C23.3065 35.6595 23.3095 35.544 23.2713 35.4391V35.4391C23.2331 35.362 23.221 35.2745 23.2368 35.1898C23.2526 35.1052 23.2954 35.0279 23.3589 34.9698V34.9698C23.3974 34.9314 23.4279 34.8858 23.4487 34.8356C23.4696 34.7853 23.4803 34.7315 23.4803 34.6772C23.4803 34.6228 23.4696 34.569 23.4487 34.5188C23.4279 34.4685 23.3974 34.423 23.3589 34.3846V34.3846C23.2978 34.3255 23.2565 34.2489 23.2408 34.1654C23.2251 34.0819 23.2358 33.9955 23.2713 33.9183V33.9183C23.314 33.8059 23.3103 33.681 23.261 33.5713C23.2118 33.4616 23.121 33.3759 23.0086 33.3331V33.3331C22.9323 33.3064 22.8675 33.2542 22.8253 33.1851C22.7832 33.1161 22.7661 33.0346 22.7772 32.9545V32.9545C22.7773 32.8982 22.7658 32.8425 22.7435 32.7908C22.7212 32.7392 22.6885 32.6926 22.6474 32.6542C22.6063 32.6157 22.5578 32.5861 22.5048 32.5673C22.4518 32.5484 22.3954 32.5407 22.3393 32.5446V32.5446C22.2582 32.5381 22.1803 32.5105 22.1133 32.4643C22.0463 32.4182 21.9927 32.3552 21.9578 32.2817V32.2817C21.9148 32.1777 21.8325 32.095 21.7288 32.0516C21.625 32.0082 21.5083 32.0077 21.4042 32.0501V32.0501C21.3255 32.0802 21.2401 32.088 21.1573 32.0725C21.0745 32.057 20.9976 32.019 20.9351 31.9625V31.9625C20.8955 31.9189 20.8472 31.8839 20.7934 31.8601C20.7395 31.8362 20.6813 31.8239 20.6224 31.8239C20.5634 31.8239 20.5052 31.8362 20.4513 31.8601C20.3975 31.8839 20.3492 31.9189 20.3096 31.9625V31.9625C20.2527 32.0176 20.1812 32.0551 20.1035 32.0707C20.0259 32.0862 19.9455 32.0791 19.8718 32.0501V32.0501C19.7634 32.0088 19.6436 32.0097 19.5359 32.0526C19.4281 32.0955 19.3404 32.1772 19.2901 32.2817C19.2641 32.3613 19.2127 32.4302 19.1437 32.4777C19.0748 32.5252 18.9921 32.5487 18.9085 32.5446V32.5446C18.8508 32.5437 18.7935 32.5545 18.74 32.5762C18.6865 32.5979 18.6379 32.6301 18.597 32.671C18.5562 32.7118 18.524 32.7605 18.5023 32.814C18.4806 32.8675 18.4698 32.9249 18.4707 32.9826V32.9826C18.4752 33.0622 18.4555 33.1413 18.4142 33.2095C18.3729 33.2776 18.3119 33.3317 18.2392 33.3644V33.3644C18.1867 33.3844 18.1387 33.4147 18.0983 33.4537C18.0578 33.4927 18.0256 33.5395 18.0037 33.5912C17.9818 33.643 17.9706 33.6986 17.9707 33.7549C17.9709 33.8111 17.9824 33.8667 18.0047 33.9183V33.9183C18.0335 33.9967 18.0405 34.0814 18.0251 34.1635C18.0097 34.2456 17.9724 34.322 17.9171 34.3846V34.3846C17.8758 34.4213 17.8427 34.4663 17.82 34.5168C17.7974 34.5672 17.7856 34.6219 17.7856 34.6772C17.7856 34.7325 17.7974 34.7871 17.82 34.8376C17.8427 34.888 17.8758 34.933 17.9171 34.9698V34.9698C17.9723 35.033 18.0096 35.1099 18.025 35.1925C18.0404 35.275 18.0334 35.3602 18.0047 35.4391C17.9633 35.5438 17.9647 35.6605 18.0086 35.7642C18.0525 35.8678 18.1353 35.95 18.2392 35.993V35.993C18.3181 36.0281 18.3848 36.0858 18.4309 36.1587C18.4771 36.2317 18.5007 36.3166 18.4988 36.403C18.5037 36.5148 18.5524 36.6201 18.6343 36.6962C18.7163 36.7724 18.8249 36.8132 18.9367 36.8098C19.016 36.8217 19.0916 36.8516 19.1577 36.8971C19.2239 36.9427 19.2787 37.0027 19.3182 37.0726V37.0726C19.3637 37.1745 19.4461 37.2554 19.5488 37.299C19.6515 37.3425 19.7669 37.3455 19.8718 37.3073V37.3073C19.9506 37.2786 20.0358 37.2716 20.1183 37.287C20.2008 37.3024 20.2777 37.3397 20.3409 37.3949V37.3949C20.3773 37.4362 20.422 37.4693 20.4722 37.4919C20.5223 37.5146 20.5767 37.5263 20.6317 37.5263C20.6868 37.5263 20.7411 37.5146 20.7913 37.4919C20.8414 37.4693 20.8862 37.4362 20.9226 37.3949V37.3949C20.9858 37.3397 21.0627 37.3024 21.1452 37.287C21.2277 37.2716 21.3128 37.2786 21.3917 37.3073V37.3073C21.4963 37.3487 21.613 37.3473 21.7165 37.3034C21.8201 37.2595 21.9023 37.1766 21.9453 37.0726V37.0726C21.9802 36.9934 22.0377 36.9263 22.1106 36.8795C22.1834 36.8328 22.2684 36.8085 22.355 36.8098V36.8098C22.4107 36.8082 22.4655 36.7955 22.5164 36.7726C22.5672 36.7496 22.6129 36.7169 22.651 36.6761C22.6891 36.6354 22.7188 36.5875 22.7383 36.5353C22.7578 36.483 22.7667 36.4274 22.7647 36.3717V36.3717C22.7664 36.2901 22.7919 36.2109 22.838 36.1436C22.8841 36.0764 22.9488 36.024 23.0242 35.993H23.0367Z" fill="#FF7058"/>
<path fill-rule="evenodd" clip-rule="evenodd" d="M22.4552 35.4392C22.6379 34.9546 22.6248 34.4178 22.4188 33.9426C22.2128 33.4673 21.83 33.091 21.3515 32.8933C20.873 32.6956 20.3364 32.6921 19.8553 32.8834C19.3742 33.0748 18.9865 33.446 18.7742 33.9184C18.5915 34.4031 18.6045 34.9399 18.8105 35.4151C19.0165 35.8903 19.3993 36.2666 19.8778 36.4643C20.3564 36.662 20.893 36.6656 21.3741 36.4742C21.8551 36.2829 22.2429 35.9117 22.4552 35.4392V35.4392Z" fill="white"/>
<path fill-rule="evenodd" clip-rule="evenodd" d="M22.2487 35.3203C22.3386 35.1067 22.3852 34.8775 22.3858 34.6458C22.3864 34.4141 22.341 34.1846 22.2522 33.9706C22.1634 33.7566 22.033 33.5623 21.8686 33.3992C21.7042 33.236 21.509 33.1072 21.2944 33.0201C21.0798 32.9331 20.85 32.8895 20.6185 32.8921C20.3869 32.8946 20.1582 32.9431 19.9455 33.0349C19.7329 33.1266 19.5405 33.2597 19.3797 33.4264C19.2189 33.5931 19.0928 33.7901 19.0087 34.006C18.9188 34.2195 18.8722 34.4488 18.8716 34.6805C18.871 34.9122 18.9164 35.1417 19.0052 35.3557C19.094 35.5697 19.2244 35.7639 19.3888 35.9271C19.5532 36.0902 19.7484 36.2191 19.963 36.3062C20.1776 36.3932 20.4074 36.4367 20.6389 36.4342C20.8705 36.4317 21.0992 36.3831 21.3119 36.2914C21.5245 36.1997 21.7168 36.0666 21.8777 35.8999C22.0385 35.7332 22.1646 35.5362 22.2487 35.3203V35.3203Z" fill="#FF7058"/>
</g>
<defs>
<clipPath id="clip0_220_1819">
<rect width="48" height="48" fill="white"/>
</clipPath>
</defs>
</svg>
