<svg width="48" height="48" viewBox="0 0 48 48" fill="none" xmlns="http://www.w3.org/2000/svg">
<g clip-path="url(#clip0_220_1858)">
<path fill-rule="evenodd" clip-rule="evenodd" d="M47.9991 24.0006C47.9997 19.2533 46.5925 14.6125 43.9554 10.665C41.3183 6.71748 37.5698 3.64068 33.184 1.82369C28.7982 0.00669801 23.972 -0.468868 19.3159 0.457139C14.6598 1.38315 10.3828 3.66913 7.02598 7.02598C3.66913 10.3828 1.38315 14.6598 0.457139 19.3159C-0.468868 23.972 0.00669801 28.7982 1.82369 33.184C3.64068 37.5698 6.71747 41.3183 10.665 43.9554C14.6124 46.5925 19.2533 47.9997 24.0006 47.9991C30.361 47.9848 36.4568 45.4518 40.9543 40.9543C45.4518 36.4568 47.9848 30.361 47.9991 24.0006Z" fill="#F5FBFF"/>
<path fill-rule="evenodd" clip-rule="evenodd" d="M24.0013 16.3107L7.66353 13.6048C7.63147 13.5993 7.59858 13.6012 7.56731 13.6101C7.53605 13.6191 7.50721 13.635 7.48295 13.6567C7.45868 13.6784 7.4396 13.7052 7.42714 13.7353C7.41468 13.7653 7.40916 13.7978 7.41098 13.8303V34.741C7.41098 34.8553 7.46811 34.9665 7.57935 34.9665L24.0013 37.6424V16.3107Z" fill="#324A5E"/>
<path fill-rule="evenodd" clip-rule="evenodd" d="M23.9987 17.0954L8.28027 14.5127V34.3291L23.9987 36.9117V17.0954Z" fill="#CED5E0"/>
<path fill-rule="evenodd" clip-rule="evenodd" d="M9.82566 13.4755C14.3355 12.1827 19.7474 13.5026 24.0017 17.1225V36.9028C19.6782 36.1752 12.6037 35.4716 8.28027 34.3201V14.5128L9.82566 13.4755Z" fill="#E6E9EE"/>
<path d="M10.3252 14.2769V13.8587C14.5156 12.8037 19.4978 14.0352 23.5012 17.3555V35.8718C19.3964 32.8891 14.4807 32.9457 10.4333 33.3715L10.3252 14.2783V14.2769Z" fill="white" stroke="#E5EAFC"/>
<path fill-rule="evenodd" clip-rule="evenodd" d="M24.0015 16.3106L40.3091 13.6047C40.3429 13.5964 40.3781 13.5959 40.4121 13.6034C40.4461 13.611 40.4778 13.6262 40.5049 13.6481C40.532 13.6699 40.5536 13.6977 40.5682 13.7293C40.5827 13.7609 40.5898 13.7955 40.5887 13.8302V34.741C40.5913 34.7964 40.5725 34.8508 40.5361 34.8928C40.4997 34.9347 40.4486 34.9611 40.3933 34.9665L24.0015 37.6423V16.3106Z" fill="#324A5E"/>
<path fill-rule="evenodd" clip-rule="evenodd" d="M23.9985 17.0954L39.7199 14.5127V34.3291L23.9985 36.9117V17.0954Z" fill="#CED5E0"/>
<path fill-rule="evenodd" clip-rule="evenodd" d="M38.1745 13.4755C33.6285 12.1827 28.2678 13.5026 24.0015 17.1225V36.9028C28.3219 36.1752 35.3693 35.4716 39.7199 34.3201V14.5128L38.1745 13.4755Z" fill="#E6E9EE"/>
<path d="M37.5664 33.3719C33.4938 32.9457 28.6039 32.8881 24.5015 35.8716V17.3558C28.5158 14.0345 33.4533 12.8031 37.6745 13.8594V14.2768V14.2783L37.5664 33.3719Z" fill="white" stroke="#E5EAFC"/>
<path fill-rule="evenodd" clip-rule="evenodd" d="M11.5664 23.1295L22.6246 25.1499V25.5137L11.5664 23.4662V23.1295Z" fill="#D0D2D4"/>
<path fill-rule="evenodd" clip-rule="evenodd" d="M11.5664 23.8303L22.6246 25.8807V26.2445L11.5664 24.1971V23.8303Z" fill="#D0D2D4"/>
<path fill-rule="evenodd" clip-rule="evenodd" d="M11.5664 24.5607L22.6246 26.6082V26.948L11.5664 24.9245V24.5607Z" fill="#D0D2D4"/>
<path fill-rule="evenodd" clip-rule="evenodd" d="M11.5664 25.2913L22.6246 27.3388V27.6755L11.5664 25.6551V25.2913Z" fill="#D0D2D4"/>
<path fill-rule="evenodd" clip-rule="evenodd" d="M11.5664 26.022L15.3818 26.7225V27.0863L11.5664 26.3858V26.022Z" fill="#D0D2D4"/>
<path fill-rule="evenodd" clip-rule="evenodd" d="M11.5664 18.3853L22.6246 20.4057V20.7725L11.5664 18.7491V18.3853Z" fill="#D0D2D4"/>
<path fill-rule="evenodd" clip-rule="evenodd" d="M11.5664 19.1158L22.6246 21.1362V21.5L11.5664 19.4525V19.1158Z" fill="#D0D2D4"/>
<path fill-rule="evenodd" clip-rule="evenodd" d="M11.5664 19.8163L22.6246 21.8668V22.2306L11.5664 20.1831V19.8163Z" fill="#D0D2D4"/>
<path fill-rule="evenodd" clip-rule="evenodd" d="M11.5664 20.5471L22.6246 22.5945V22.9613L11.5664 20.9109V20.5471Z" fill="#D0D2D4"/>
<path fill-rule="evenodd" clip-rule="evenodd" d="M11.5664 21.2775L16.422 22.1735V22.5403L11.5664 21.6413V21.2775Z" fill="#D0D2D4"/>
<path fill-rule="evenodd" clip-rule="evenodd" d="M11.5664 17.6545L22.6246 19.705V20.0417L11.5664 18.0213V17.6545Z" fill="#D0D2D4"/>
<path fill-rule="evenodd" clip-rule="evenodd" d="M11.5664 22.399L22.6246 24.4194V24.7862L11.5664 22.7658V22.399Z" fill="#D0D2D4"/>
<path fill-rule="evenodd" clip-rule="evenodd" d="M36.7974 22.399L25.7393 25.15V25.5138L36.7974 22.7658V22.399Z" fill="#D0D2D4"/>
<path fill-rule="evenodd" clip-rule="evenodd" d="M36.7974 23.1295L25.7393 25.8805V26.2443L36.7974 23.4662V23.1295Z" fill="#D0D2D4"/>
<path fill-rule="evenodd" clip-rule="evenodd" d="M36.7974 23.8303L25.7393 26.6083V26.9481L36.7974 24.1971V23.8303Z" fill="#D0D2D4"/>
<path fill-rule="evenodd" clip-rule="evenodd" d="M36.7974 24.5607L25.7393 27.3388V27.6755L36.7974 24.9245V24.5607Z" fill="#D0D2D4"/>
<path fill-rule="evenodd" clip-rule="evenodd" d="M36.7973 25.2913L32.9819 26.2444V26.6082L36.7973 25.6551V25.2913Z" fill="#D0D2D4"/>
<path fill-rule="evenodd" clip-rule="evenodd" d="M36.7974 17.6545L25.7393 20.4055V20.7723L36.7974 18.0213V17.6545Z" fill="#D0D2D4"/>
<path fill-rule="evenodd" clip-rule="evenodd" d="M36.7974 18.3853L25.7393 21.1363V21.5001L36.7974 18.7491V18.3853Z" fill="#D0D2D4"/>
<path fill-rule="evenodd" clip-rule="evenodd" d="M36.7974 19.1158L25.7393 21.8668V22.2306L36.7974 19.4525V19.1158Z" fill="#D0D2D4"/>
<path fill-rule="evenodd" clip-rule="evenodd" d="M36.7974 19.8163L25.7393 22.5944V22.9612L36.7974 20.1831V19.8163Z" fill="#D0D2D4"/>
<path fill-rule="evenodd" clip-rule="evenodd" d="M36.7974 20.5471L31.9448 21.7557V22.1195L36.7974 20.9109V20.5471Z" fill="#D0D2D4"/>
<path fill-rule="evenodd" clip-rule="evenodd" d="M36.7974 16.9271L25.7393 19.7052V20.0419L36.7974 17.2909V16.9271Z" fill="#D0D2D4"/>
<path fill-rule="evenodd" clip-rule="evenodd" d="M36.7974 21.6714L25.7393 24.4194V24.7862L36.7974 22.0352V21.6714Z" fill="#D0D2D4"/>
<path fill-rule="evenodd" clip-rule="evenodd" d="M36.7974 26.948L25.7393 29.699V30.0628L36.7974 27.3118V26.948Z" fill="#D0D2D4"/>
<path fill-rule="evenodd" clip-rule="evenodd" d="M36.7974 27.6757L25.7393 30.4267V30.7935L36.7974 28.0425V27.6757Z" fill="#D0D2D4"/>
<path fill-rule="evenodd" clip-rule="evenodd" d="M36.7974 28.4061L25.7393 31.1571V31.5209L36.7974 28.7699V28.4061Z" fill="#D0D2D4"/>
<path fill-rule="evenodd" clip-rule="evenodd" d="M36.7974 29.1367L25.7393 31.8877V32.2515L36.7974 29.4734V29.1367Z" fill="#D0D2D4"/>
<path fill-rule="evenodd" clip-rule="evenodd" d="M36.7974 29.8371L31.9448 31.0428V31.4096L36.7974 30.2039V29.8371Z" fill="#D0D2D4"/>
<path fill-rule="evenodd" clip-rule="evenodd" d="M36.7974 26.2173L25.7393 28.9954V29.3321L36.7974 26.5811V26.2173Z" fill="#D0D2D4"/>
</g>
<defs>
<clipPath id="clip0_220_1858">
<rect width="48" height="48" fill="white"/>
</clipPath>
</defs>
</svg>
