<svg width="24" height="24" viewBox="0 0 24 24" fill="none" xmlns="http://www.w3.org/2000/svg">
<path d="M19.1998 13.6H13.5998V19.2M22.3998 13.6H23.9998M19.1998 23.2H15.9998H12.7998M17.5998 18.4H23.1998V24M4.7998 5.59999H6.3998M17.5998 5.59999H19.1998M4.7998 18.4H6.3998M2.3998 0.799988H8.7998C9.68346 0.799988 10.3998 1.51633 10.3998 2.39999V8.79999C10.3998 9.68364 9.68346 10.4 8.7998 10.4H2.3998C1.51615 10.4 0.799805 9.68364 0.799805 8.79999V2.39999C0.799805 1.51633 1.51615 0.799988 2.3998 0.799988ZM15.1998 0.799988H21.5998C22.4835 0.799988 23.1998 1.51633 23.1998 2.39999V8.79999C23.1998 9.68364 22.4835 10.4 21.5998 10.4H15.1998C14.3161 10.4 13.5998 9.68364 13.5998 8.79999V2.39999C13.5998 1.51633 14.3161 0.799988 15.1998 0.799988ZM2.3998 13.6H8.7998C9.68346 13.6 10.3998 14.3163 10.3998 15.2V21.6C10.3998 22.4836 9.68346 23.2 8.7998 23.2H2.3998C1.51615 23.2 0.799805 22.4836 0.799805 21.6V15.2C0.799805 14.3163 1.51615 13.6 2.3998 13.6Z" stroke="#00394C"/>
</svg>
